<svg xmlns="http://www.w3.org/2000/svg" xmlns:xlink="http://www.w3.org/1999/xlink" width="500" zoomAndPan="magnify" viewBox="0 0 375 374.999991" height="500" preserveAspectRatio="xMidYMid meet" version="1.0"><defs><g/><clipPath id="c5dcd286f4"><path d="M 33.363281 33.363281 L 341.636719 33.363281 L 341.636719 341.636719 L 33.363281 341.636719 Z M 33.363281 33.363281 " clip-rule="nonzero"/></clipPath><clipPath id="afad913fcd"><path d="M 187.5 33.363281 C 102.371094 33.363281 33.363281 102.371094 33.363281 187.5 C 33.363281 272.628906 102.371094 341.636719 187.5 341.636719 C 272.628906 341.636719 341.636719 272.628906 341.636719 187.5 C 341.636719 102.371094 272.628906 33.363281 187.5 33.363281 Z M 187.5 33.363281 " clip-rule="nonzero"/></clipPath></defs><rect x="-37.5" width="450" fill="#ffffff" y="-37.499999" height="449.999989" fill-opacity="1"/><rect x="-37.5" width="450" fill="#ffffff" y="-37.499999" height="449.999989" fill-opacity="1"/><g clip-path="url(#c5dcd286f4)"><g clip-path="url(#afad913fcd)"><path fill="#e6e6dd" d="M 33.363281 33.363281 L 341.636719 33.363281 L 341.636719 341.636719 L 33.363281 341.636719 Z M 33.363281 33.363281 " fill-opacity="1" fill-rule="nonzero"/></g></g><g fill="#000000" fill-opacity="1"><g transform="translate(103.5982, 229.424492)"><g><path d="M 41.433594 -88.832031 C 44.5 -97.527344 46.035156 -106.566406 47.570312 -115.773438 C 48.59375 -122.761719 49.277344 -130.4375 44.5 -136.574219 C 41.089844 -140.835938 35.636719 -142.199219 30.351562 -142.199219 C 19.097656 -142.199219 3.921875 -135.039062 0.683594 -123.617188 C 0.171875 -121.742188 -0.683594 -117.820312 1.703125 -116.453125 C 2.214844 -116.113281 2.558594 -116.113281 3.070312 -116.113281 C 5.285156 -116.113281 8.015625 -118.84375 9.207031 -120.035156 C 11.933594 -122.59375 14.324219 -125.832031 17.390625 -128.21875 C 19.949219 -130.4375 24.382812 -132.992188 28.304688 -132.992188 C 30.179688 -132.992188 32.054688 -132.3125 33.589844 -130.4375 C 35.636719 -127.878906 35.125 -125.152344 34.953125 -122.253906 C 34.953125 -119.523438 34.273438 -116.796875 33.929688 -114.238281 C 32.738281 -105.714844 30.691406 -97.527344 28.472656 -89.34375 C 26.769531 -83.71875 25.234375 -78.089844 23.699219 -72.464844 C 23.699219 -78.089844 23.699219 -83.886719 23.699219 -89.6875 C 23.871094 -95.140625 24.210938 -100.425781 24.722656 -105.714844 C 24.894531 -108.101562 24.722656 -110.65625 25.234375 -112.875 C 25.746094 -115.261719 25.917969 -117.648438 25.574219 -120.035156 C 25.40625 -121.910156 23.871094 -122.59375 22.335938 -122.59375 C 16.027344 -122.59375 11.59375 -116.964844 10.402344 -111.167969 C 6.648438 -95.484375 6.992188 -79.457031 6.820312 -63.597656 C 6.648438 -52.6875 6.820312 -41.773438 7.503906 -30.863281 C 8.183594 -21.144531 10.230469 -11.59375 11.59375 -2.046875 C 11.765625 -1.363281 11.765625 -0.683594 11.933594 0 C 13.300781 7.332031 17.050781 23.871094 26.769531 24.382812 C 31.542969 24.382812 33.589844 22.507812 35.636719 18.414062 C 39.726562 10.570312 41.773438 -5.96875 42.457031 -14.832031 C 43.136719 -25.746094 41.601562 -38.191406 36.148438 -47.742188 C 34.441406 -50.808594 31.542969 -53.710938 28.132812 -55.585938 C 32.90625 -66.496094 37.339844 -77.578125 41.433594 -88.832031 Z M 27.28125 -33.929688 C 27.453125 -32.90625 27.621094 -31.882812 27.960938 -31.03125 C 28.644531 -27.621094 29.15625 -24.042969 29.15625 -20.632812 C 29.328125 -18.074219 29.328125 -15.34375 29.15625 -12.789062 C 29.15625 -10.230469 28.644531 -1.535156 25.0625 -1.875 C 22.847656 -2.046875 23.019531 -5.285156 23.019531 -6.820312 C 22.847656 -9.378906 22.335938 -12.105469 22.164062 -14.664062 C 21.824219 -20.800781 21.484375 -26.769531 21.144531 -32.90625 C 20.800781 -36.316406 20.800781 -40.238281 21.3125 -43.820312 C 21.3125 -44.671875 21.652344 -45.183594 21.996094 -45.183594 C 24.550781 -45.183594 26.941406 -35.804688 27.28125 -33.929688 Z M 27.28125 -33.929688 "/></g></g></g><g fill="#000000" fill-opacity="1"><g transform="translate(152.020083, 229.424492)"><g><path d="M 42.285156 -43.480469 C 41.773438 -42.625 41.433594 -41.773438 40.921875 -41.261719 C 38.191406 -37.679688 35.464844 -33.929688 32.226562 -30.863281 C 29.839844 -28.304688 27.453125 -25.917969 24.550781 -23.871094 C 23.359375 -22.847656 21.824219 -21.3125 20.121094 -21.3125 C 16.878906 -21.3125 16.710938 -26.085938 16.367188 -28.472656 C 15.34375 -35.125 15.003906 -41.945312 15.003906 -48.765625 C 15.175781 -53.539062 15.34375 -58.3125 15.6875 -63.085938 C 20.632812 -63.597656 28.984375 -66.15625 31.371094 -70.589844 C 33.078125 -73.65625 31.542969 -76.726562 28.472656 -77.921875 C 27.621094 -78.261719 26.941406 -78.261719 26.085938 -78.261719 C 24.042969 -78.261719 21.996094 -77.578125 20.121094 -77.410156 C 19.097656 -77.238281 18.074219 -77.066406 16.878906 -76.898438 C 17.5625 -83.207031 18.414062 -89.515625 19.265625 -95.996094 C 19.777344 -100.257812 19.097656 -105.882812 20.800781 -109.976562 C 20.972656 -110.488281 21.484375 -110.828125 21.824219 -110.828125 C 24.382812 -110.828125 29.839844 -102.644531 30.351562 -100.9375 C 30.691406 -100.257812 31.371094 -99.746094 32.054688 -99.746094 C 32.566406 -99.746094 33.078125 -100.085938 33.417969 -100.597656 C 36.828125 -107.246094 35.976562 -115.261719 29.496094 -119.695312 C 27.109375 -121.230469 24.722656 -121.910156 22.507812 -121.910156 C 18.242188 -121.910156 14.324219 -119.523438 11.59375 -115.261719 C 5.457031 -105.03125 1.195312 -65.816406 0.511719 -53.539062 C -0.339844 -39.214844 -0.851562 -13.128906 13.640625 -4.261719 C 15.34375 -3.238281 17.050781 -2.726562 18.585938 -2.726562 C 27.453125 -2.726562 34.78125 -15.003906 38.363281 -22.335938 C 41.433594 -28.304688 44.5 -34.101562 47.570312 -39.898438 C 48.765625 -42.113281 51.664062 -47.398438 47.058594 -47.910156 C 44.84375 -48.082031 43.480469 -45.695312 42.285156 -43.480469 Z M 42.285156 -43.480469 "/></g></g></g><g fill="#000000" fill-opacity="1"><g transform="translate(194.644972, 229.424492)"><g><path d="M 43.136719 -53.367188 C 40.582031 -45.695312 37.679688 -37.851562 35.125 -30.007812 C 32.054688 -20.632812 28.472656 -12.445312 21.484375 -5.457031 C 18.925781 -11.253906 17.222656 -21.652344 16.710938 -27.792969 C 14.832031 -44.671875 14.324219 -62.234375 16.710938 -79.113281 C 17.734375 -85.59375 19.265625 -92.585938 22.507812 -98.550781 C 22.507812 -98.550781 23.019531 -99.234375 23.359375 -99.746094 C 23.699219 -98.894531 25.574219 -97.1875 25.917969 -96.675781 C 27.792969 -94.117188 30.007812 -91.21875 31.371094 -88.320312 C 31.714844 -87.296875 32.738281 -86.445312 33.761719 -86.445312 C 34.273438 -86.445312 34.78125 -86.617188 35.292969 -87.128906 C 41.261719 -94.117188 36.316406 -106.566406 29.328125 -110.828125 C 26.941406 -112.191406 24.894531 -112.875 22.847656 -112.875 C 16.367188 -112.875 11.425781 -106.226562 8.523438 -99.746094 C -0.851562 -77.410156 -0.851562 -53.710938 1.363281 -29.839844 C 2.386719 -18.753906 4.605469 6.648438 19.777344 6.648438 C 31.203125 6.648438 37.171875 -7.503906 40.921875 -16.539062 C 45.695312 -27.960938 47.742188 -40.582031 49.277344 -52.515625 C 49.617188 -54.5625 48.082031 -55.585938 46.378906 -55.585938 C 45.011719 -55.585938 43.648438 -54.902344 43.136719 -53.367188 Z M 43.136719 -53.367188 "/></g></g></g><g fill="#000000" fill-opacity="1"><g transform="translate(237.269862, 229.424492)"><g><path d="M 30.351562 -25.574219 C 28.472656 -31.03125 25.917969 -36.316406 23.53125 -41.433594 C 20.800781 -47.398438 17.222656 -53.027344 15.175781 -59.164062 C 13.128906 -65.984375 12.105469 -73.65625 14.152344 -80.648438 C 15.175781 -83.886719 16.539062 -86.445312 18.753906 -89.003906 C 20.460938 -90.707031 22.847656 -91.390625 24.894531 -92.414062 C 26.257812 -93.097656 28.984375 -94.117188 30.007812 -95.140625 C 31.714844 -97.015625 31.03125 -99.234375 28.816406 -99.914062 C 27.960938 -100.257812 26.941406 -100.425781 25.917969 -100.425781 C 21.3125 -100.425781 14.832031 -97.015625 11.59375 -93.949219 C 6.308594 -89.003906 4.605469 -82.183594 3.410156 -75.191406 C 2.386719 -68.03125 3.238281 -60.699219 4.605469 -53.878906 C 5.796875 -47.230469 8.867188 -41.945312 11.765625 -36.148438 C 14.324219 -30.863281 17.222656 -25.574219 19.609375 -20.289062 C 23.699219 -11.253906 24.550781 -3.070312 20.632812 6.480469 C 19.949219 8.695312 15.175781 19.265625 11.425781 19.265625 C 11.082031 19.265625 10.570312 19.097656 10.230469 18.753906 C 7.332031 16.367188 10.230469 5.796875 11.082031 2.726562 C 11.765625 -0.171875 13.128906 -2.898438 14.324219 -5.796875 C 15.515625 -8.523438 17.5625 -11.933594 17.222656 -15.003906 C 17.050781 -16.878906 16.199219 -17.5625 15.175781 -17.5625 C 13.980469 -17.5625 12.617188 -16.539062 11.425781 -15.34375 C 6.136719 -9.207031 2.214844 4.261719 0.683594 11.933594 C 0 15.175781 0 18.242188 0.511719 21.484375 C 1.535156 27.960938 3.410156 34.78125 11.253906 34.78125 C 19.609375 34.78125 26.941406 23.359375 29.839844 16.878906 C 32.738281 10.058594 34.613281 1.195312 33.929688 -6.308594 C 33.417969 -11.425781 33.078125 -16.539062 31.714844 -21.484375 C 31.203125 -22.847656 30.863281 -24.210938 30.351562 -25.574219 Z M 30.351562 -25.574219 "/></g></g></g><g fill="#000000" fill-opacity="1"><g transform="translate(143.744795, 266.330016)"><g><path d="M 10.921875 -20.800781 C 10.367188 -22.675781 8.804688 -23.992188 6.96875 -23.992188 C 4.230469 -23.992188 1.835938 -21.113281 0.832031 -18.824219 C 0.0703125 -17.023438 -0.625 -13.867188 1.144531 -12.480469 C 1.351562 -12.308594 1.558594 -12.238281 1.804688 -12.238281 C 2.601562 -12.238281 3.292969 -13.242188 2.53125 -13.867188 C 1.421875 -14.734375 2.21875 -17.265625 2.738281 -18.375 C 3.433594 -19.796875 4.785156 -21.496094 6.449219 -21.496094 C 6.65625 -21.496094 6.828125 -21.460938 7.039062 -21.425781 C 8.5625 -21.046875 8.597656 -18.964844 8.632812 -17.714844 C 8.667969 -16.050781 8.390625 -14.386719 8.113281 -12.722656 C 7.765625 -10.679688 7.386719 -8.632812 6.863281 -6.585938 C 6.621094 -5.71875 6.34375 -4.855469 5.996094 -4.023438 C 5.6875 -6.308594 5.652344 -8.703125 5.652344 -10.992188 C 5.652344 -13.382812 5.824219 -15.742188 4.855469 -17.992188 C 4.785156 -18.167969 4.609375 -18.238281 4.4375 -18.238281 C 4.195312 -18.238281 3.953125 -18.097656 3.882812 -17.855469 C 3.121094 -14.457031 2.636719 -11.023438 2.667969 -7.523438 C 2.667969 -5.6875 2.84375 -3.847656 3.121094 -2.046875 C 3.292969 -0.902344 3.605469 0.660156 4.921875 1.039062 C 5.097656 1.074219 5.234375 1.109375 5.410156 1.109375 C 6.449219 1.109375 7.003906 0 7.453125 -0.867188 C 9.570312 -4.820312 10.367188 -9.328125 10.992188 -13.730469 C 11.335938 -16.050781 11.578125 -18.515625 10.921875 -20.800781 Z M 10.921875 -20.800781 "/></g></g></g><g fill="#000000" fill-opacity="1"><g transform="translate(155.393694, 266.330016)"><g><path d="M 8.632812 -10.089844 C 7.835938 -10.160156 7.316406 -8.773438 6.828125 -8.25 C 6.691406 -8.078125 6.484375 -7.941406 6.308594 -7.835938 C 6.621094 -9.914062 6.898438 -12.03125 7.074219 -14.179688 C 7.210938 -16.15625 7.210938 -18.304688 6.308594 -20.109375 C 5.964844 -20.871094 5.339844 -21.289062 4.75 -21.289062 C 4.542969 -21.289062 4.300781 -21.21875 4.089844 -21.113281 C 2.566406 -20.699219 1.628906 -18.445312 1.109375 -17.023438 C 0.382812 -14.976562 0.171875 -12.722656 0.0703125 -10.539062 C -0.0703125 -8.21875 0 -5.617188 0.761719 -3.398438 C 1.109375 -2.425781 2.046875 -0.902344 3.191406 -0.902344 C 3.46875 -0.902344 3.746094 -1.003906 4.054688 -1.25 C 5.410156 -2.289062 5.753906 -4.230469 5.996094 -5.929688 C 6.898438 -6.03125 7.695312 -6.691406 8.21875 -7.417969 C 8.5625 -7.871094 9.949219 -9.949219 8.632812 -10.089844 Z M 3.328125 -3.328125 C 3.222656 -3.328125 3.121094 -3.433594 2.945312 -3.710938 C 2.253906 -4.921875 2.21875 -6.621094 2.183594 -7.972656 C 2.082031 -9.605469 2.183594 -11.199219 2.359375 -12.828125 C 2.601562 -15.394531 3.121094 -16.851562 4.125 -19.101562 C 4.195312 -19.101562 4.265625 -19.136719 4.332031 -19.171875 C 4.367188 -19.207031 4.4375 -19.207031 4.472656 -19.207031 C 5.0625 -19.207031 5.234375 -16.710938 5.269531 -16.363281 C 5.375 -14.5625 5.164062 -12.757812 4.992188 -10.957031 C 4.957031 -10.714844 4.921875 -10.4375 4.921875 -10.160156 C 4.332031 -10.054688 3.847656 -9.535156 3.640625 -8.839844 C 3.398438 -7.871094 3.675781 -6.96875 4.332031 -6.414062 C 4.300781 -6.273438 4.265625 -6.136719 4.230469 -5.964844 C 4.160156 -5.617188 3.570312 -3.328125 3.328125 -3.328125 Z M 3.328125 -3.328125 "/></g></g></g><g fill="#000000" fill-opacity="1"><g transform="translate(163.263633, 266.330016)"><g><path d="M 8.597656 -8.839844 C 8.496094 -8.667969 8.425781 -8.496094 8.320312 -8.390625 C 7.765625 -7.664062 7.210938 -6.898438 6.550781 -6.273438 C 6.066406 -5.753906 5.582031 -5.269531 4.992188 -4.855469 C 4.75 -4.644531 4.4375 -4.332031 4.089844 -4.332031 C 3.433594 -4.332031 3.398438 -5.304688 3.328125 -5.789062 C 3.121094 -7.140625 3.050781 -8.527344 3.050781 -9.914062 C 3.085938 -10.886719 3.121094 -11.855469 3.191406 -12.828125 C 4.195312 -12.933594 5.894531 -13.453125 6.378906 -14.355469 C 6.726562 -14.976562 6.414062 -15.601562 5.789062 -15.84375 C 5.617188 -15.914062 5.476562 -15.914062 5.304688 -15.914062 C 4.886719 -15.914062 4.472656 -15.773438 4.089844 -15.742188 C 3.882812 -15.707031 3.675781 -15.671875 3.433594 -15.636719 C 3.570312 -16.917969 3.746094 -18.203125 3.917969 -19.519531 C 4.023438 -20.386719 3.882812 -21.53125 4.230469 -22.363281 C 4.265625 -22.464844 4.367188 -22.535156 4.4375 -22.535156 C 4.957031 -22.535156 6.066406 -20.871094 6.171875 -20.523438 C 6.242188 -20.386719 6.378906 -20.28125 6.519531 -20.28125 C 6.621094 -20.28125 6.726562 -20.351562 6.796875 -20.457031 C 7.488281 -21.808594 7.316406 -23.4375 5.996094 -24.339844 C 5.511719 -24.652344 5.027344 -24.789062 4.578125 -24.789062 C 3.710938 -24.789062 2.914062 -24.304688 2.359375 -23.4375 C 1.109375 -21.355469 0.242188 -13.382812 0.105469 -10.886719 C -0.0703125 -7.972656 -0.171875 -2.667969 2.773438 -0.867188 C 3.121094 -0.660156 3.46875 -0.554688 3.777344 -0.554688 C 5.582031 -0.554688 7.074219 -3.050781 7.800781 -4.542969 C 8.425781 -5.753906 9.050781 -6.933594 9.671875 -8.113281 C 9.914062 -8.5625 10.503906 -9.636719 9.570312 -9.742188 C 9.117188 -9.777344 8.839844 -9.292969 8.597656 -8.839844 Z M 8.597656 -8.839844 "/></g></g></g><g fill="#000000" fill-opacity="1"><g transform="translate(171.930968, 266.330016)"><g><path d="M 6.171875 -5.199219 C 5.789062 -6.308594 5.269531 -7.386719 4.785156 -8.425781 C 4.230469 -9.636719 3.5 -10.78125 3.085938 -12.03125 C 2.667969 -13.417969 2.460938 -14.976562 2.878906 -16.398438 C 3.085938 -17.058594 3.363281 -17.578125 3.8125 -18.097656 C 4.160156 -18.445312 4.644531 -18.582031 5.0625 -18.792969 C 5.339844 -18.929688 5.894531 -19.136719 6.101562 -19.347656 C 6.449219 -19.726562 6.308594 -20.179688 5.859375 -20.316406 C 5.6875 -20.386719 5.476562 -20.421875 5.269531 -20.421875 C 4.332031 -20.421875 3.015625 -19.726562 2.359375 -19.101562 C 1.28125 -18.097656 0.9375 -16.710938 0.695312 -15.289062 C 0.484375 -13.832031 0.660156 -12.34375 0.9375 -10.957031 C 1.179688 -9.605469 1.804688 -8.527344 2.390625 -7.351562 C 2.914062 -6.273438 3.5 -5.199219 3.988281 -4.125 C 4.820312 -2.289062 4.992188 -0.625 4.195312 1.316406 C 4.054688 1.769531 3.085938 3.917969 2.324219 3.917969 C 2.253906 3.917969 2.148438 3.882812 2.082031 3.8125 C 1.492188 3.328125 2.082031 1.179688 2.253906 0.554688 C 2.390625 -0.0351562 2.667969 -0.589844 2.914062 -1.179688 C 3.15625 -1.734375 3.570312 -2.425781 3.5 -3.050781 C 3.46875 -3.433594 3.292969 -3.570312 3.085938 -3.570312 C 2.84375 -3.570312 2.566406 -3.363281 2.324219 -3.121094 C 1.25 -1.871094 0.449219 0.867188 0.140625 2.425781 C 0 3.085938 0 3.710938 0.105469 4.367188 C 0.3125 5.6875 0.695312 7.074219 2.289062 7.074219 C 3.988281 7.074219 5.476562 4.75 6.066406 3.433594 C 6.65625 2.046875 7.039062 0.242188 6.898438 -1.28125 C 6.796875 -2.324219 6.726562 -3.363281 6.449219 -4.367188 C 6.34375 -4.644531 6.273438 -4.921875 6.171875 -5.199219 Z M 6.171875 -5.199219 "/></g></g></g><g fill="#000000" fill-opacity="1"><g transform="translate(178.864836, 266.330016)"><g/></g></g><g fill="#000000" fill-opacity="1"><g transform="translate(182.505116, 266.330016)"><g><path d="M 10.921875 -20.800781 C 10.367188 -22.675781 8.804688 -23.992188 6.96875 -23.992188 C 4.230469 -23.992188 1.835938 -21.113281 0.832031 -18.824219 C 0.0703125 -17.023438 -0.625 -13.867188 1.144531 -12.480469 C 1.351562 -12.308594 1.558594 -12.238281 1.804688 -12.238281 C 2.601562 -12.238281 3.292969 -13.242188 2.53125 -13.867188 C 1.421875 -14.734375 2.21875 -17.265625 2.738281 -18.375 C 3.433594 -19.796875 4.785156 -21.496094 6.449219 -21.496094 C 6.65625 -21.496094 6.828125 -21.460938 7.039062 -21.425781 C 8.5625 -21.046875 8.597656 -18.964844 8.632812 -17.714844 C 8.667969 -16.050781 8.390625 -14.386719 8.113281 -12.722656 C 7.765625 -10.679688 7.386719 -8.632812 6.863281 -6.585938 C 6.621094 -5.71875 6.34375 -4.855469 5.996094 -4.023438 C 5.6875 -6.308594 5.652344 -8.703125 5.652344 -10.992188 C 5.652344 -13.382812 5.824219 -15.742188 4.855469 -17.992188 C 4.785156 -18.167969 4.609375 -18.238281 4.4375 -18.238281 C 4.195312 -18.238281 3.953125 -18.097656 3.882812 -17.855469 C 3.121094 -14.457031 2.636719 -11.023438 2.667969 -7.523438 C 2.667969 -5.6875 2.84375 -3.847656 3.121094 -2.046875 C 3.292969 -0.902344 3.605469 0.660156 4.921875 1.039062 C 5.097656 1.074219 5.234375 1.109375 5.410156 1.109375 C 6.449219 1.109375 7.003906 0 7.453125 -0.867188 C 9.570312 -4.820312 10.367188 -9.328125 10.992188 -13.730469 C 11.335938 -16.050781 11.578125 -18.515625 10.921875 -20.800781 Z M 10.921875 -20.800781 "/></g></g></g><g fill="#000000" fill-opacity="1"><g transform="translate(194.154018, 266.330016)"><g><path d="M 8.597656 -8.839844 C 8.496094 -8.667969 8.425781 -8.496094 8.320312 -8.390625 C 7.765625 -7.664062 7.210938 -6.898438 6.550781 -6.273438 C 6.066406 -5.753906 5.582031 -5.269531 4.992188 -4.855469 C 4.75 -4.644531 4.4375 -4.332031 4.089844 -4.332031 C 3.433594 -4.332031 3.398438 -5.304688 3.328125 -5.789062 C 3.121094 -7.140625 3.050781 -8.527344 3.050781 -9.914062 C 3.085938 -10.886719 3.121094 -11.855469 3.191406 -12.828125 C 4.195312 -12.933594 5.894531 -13.453125 6.378906 -14.355469 C 6.726562 -14.976562 6.414062 -15.601562 5.789062 -15.84375 C 5.617188 -15.914062 5.476562 -15.914062 5.304688 -15.914062 C 4.886719 -15.914062 4.472656 -15.773438 4.089844 -15.742188 C 3.882812 -15.707031 3.675781 -15.671875 3.433594 -15.636719 C 3.570312 -16.917969 3.746094 -18.203125 3.917969 -19.519531 C 4.023438 -20.386719 3.882812 -21.53125 4.230469 -22.363281 C 4.265625 -22.464844 4.367188 -22.535156 4.4375 -22.535156 C 4.957031 -22.535156 6.066406 -20.871094 6.171875 -20.523438 C 6.242188 -20.386719 6.378906 -20.28125 6.519531 -20.28125 C 6.621094 -20.28125 6.726562 -20.351562 6.796875 -20.457031 C 7.488281 -21.808594 7.316406 -23.4375 5.996094 -24.339844 C 5.511719 -24.652344 5.027344 -24.789062 4.578125 -24.789062 C 3.710938 -24.789062 2.914062 -24.304688 2.359375 -23.4375 C 1.109375 -21.355469 0.242188 -13.382812 0.105469 -10.886719 C -0.0703125 -7.972656 -0.171875 -2.667969 2.773438 -0.867188 C 3.121094 -0.660156 3.46875 -0.554688 3.777344 -0.554688 C 5.582031 -0.554688 7.074219 -3.050781 7.800781 -4.542969 C 8.425781 -5.753906 9.050781 -6.933594 9.671875 -8.113281 C 9.914062 -8.5625 10.503906 -9.636719 9.570312 -9.742188 C 9.117188 -9.777344 8.839844 -9.292969 8.597656 -8.839844 Z M 8.597656 -8.839844 "/></g></g></g><g fill="#000000" fill-opacity="1"><g transform="translate(202.821353, 266.330016)"><g><path d="M 6.171875 -5.199219 C 5.789062 -6.308594 5.269531 -7.386719 4.785156 -8.425781 C 4.230469 -9.636719 3.5 -10.78125 3.085938 -12.03125 C 2.667969 -13.417969 2.460938 -14.976562 2.878906 -16.398438 C 3.085938 -17.058594 3.363281 -17.578125 3.8125 -18.097656 C 4.160156 -18.445312 4.644531 -18.582031 5.0625 -18.792969 C 5.339844 -18.929688 5.894531 -19.136719 6.101562 -19.347656 C 6.449219 -19.726562 6.308594 -20.179688 5.859375 -20.316406 C 5.6875 -20.386719 5.476562 -20.421875 5.269531 -20.421875 C 4.332031 -20.421875 3.015625 -19.726562 2.359375 -19.101562 C 1.28125 -18.097656 0.9375 -16.710938 0.695312 -15.289062 C 0.484375 -13.832031 0.660156 -12.34375 0.9375 -10.957031 C 1.179688 -9.605469 1.804688 -8.527344 2.390625 -7.351562 C 2.914062 -6.273438 3.5 -5.199219 3.988281 -4.125 C 4.820312 -2.289062 4.992188 -0.625 4.195312 1.316406 C 4.054688 1.769531 3.085938 3.917969 2.324219 3.917969 C 2.253906 3.917969 2.148438 3.882812 2.082031 3.8125 C 1.492188 3.328125 2.082031 1.179688 2.253906 0.554688 C 2.390625 -0.0351562 2.667969 -0.589844 2.914062 -1.179688 C 3.15625 -1.734375 3.570312 -2.425781 3.5 -3.050781 C 3.46875 -3.433594 3.292969 -3.570312 3.085938 -3.570312 C 2.84375 -3.570312 2.566406 -3.363281 2.324219 -3.121094 C 1.25 -1.871094 0.449219 0.867188 0.140625 2.425781 C 0 3.085938 0 3.710938 0.105469 4.367188 C 0.3125 5.6875 0.695312 7.074219 2.289062 7.074219 C 3.988281 7.074219 5.476562 4.75 6.066406 3.433594 C 6.65625 2.046875 7.039062 0.242188 6.898438 -1.28125 C 6.796875 -2.324219 6.726562 -3.363281 6.449219 -4.367188 C 6.34375 -4.644531 6.273438 -4.921875 6.171875 -5.199219 Z M 6.171875 -5.199219 "/></g></g></g><g fill="#000000" fill-opacity="1"><g transform="translate(209.755225, 266.330016)"><g><path d="M 0.554688 -18.652344 C 0.382812 -18.203125 0.625 -18.097656 0.832031 -17.75 C 1.214844 -17.058594 1.144531 -16.226562 1.109375 -15.496094 C 1.109375 -14.941406 1.003906 -14.421875 0.902344 -13.902344 C 0.625 -12.410156 0.347656 -10.921875 0.207031 -9.359375 C 0.105469 -8.390625 -0.554688 -2.980469 1.558594 -2.980469 C 1.628906 -2.980469 1.664062 -2.980469 1.734375 -2.980469 C 2.945312 -3.121094 2.703125 -5.0625 2.667969 -5.894531 C 2.566406 -7.835938 2.566406 -9.847656 2.914062 -11.753906 C 3.257812 -13.453125 3.570312 -15.1875 3.570312 -16.917969 C 3.570312 -18.097656 3.085938 -19.484375 1.871094 -19.484375 C 1.316406 -19.484375 0.726562 -19.242188 0.554688 -18.652344 Z M 3.535156 -22.121094 C 3.5 -22.363281 3.433594 -22.605469 3.292969 -22.777344 C 3.15625 -22.988281 3.015625 -23.160156 2.773438 -23.296875 C 2.460938 -23.402344 2.21875 -23.472656 1.90625 -23.472656 C 1.492188 -23.472656 1.144531 -23.230469 0.9375 -22.917969 C 0.832031 -22.710938 0.726562 -22.5 0.695312 -22.292969 C 0.695312 -22.15625 0.660156 -21.980469 0.660156 -21.84375 C 0.796875 -20.90625 1.421875 -20.351562 2.359375 -20.351562 C 2.914062 -20.351562 3.292969 -20.734375 3.46875 -21.21875 C 3.605469 -21.496094 3.605469 -21.808594 3.535156 -22.121094 Z M 3.535156 -22.121094 "/></g></g></g><g fill="#000000" fill-opacity="1"><g transform="translate(213.360835, 266.330016)"><g><path d="M 11.40625 -10.019531 C 11.234375 -10.054688 11.058594 -9.914062 10.886719 -9.777344 C 10.679688 -9.636719 10.4375 -9.464844 10.261719 -9.292969 C 9.984375 -8.980469 9.636719 -8.703125 9.328125 -8.390625 C 9.050781 -8.148438 8.875 -7.835938 8.597656 -7.558594 C 8.597656 -7.800781 8.597656 -8.078125 8.597656 -8.320312 C 8.527344 -8.773438 8.5625 -9.257812 8.5625 -9.742188 C 8.527344 -10.125 8.527344 -10.539062 8.527344 -10.921875 C 8.425781 -12.964844 8.113281 -14.910156 7.558594 -16.882812 C 7.417969 -17.335938 6.96875 -17.578125 6.550781 -17.578125 C 6.136719 -17.578125 5.753906 -17.371094 5.6875 -16.882812 C 5.0625 -13.453125 4.578125 -10.089844 3.570312 -6.726562 C 3.46875 -6.414062 3.363281 -6.03125 3.222656 -5.6875 C 3.222656 -5.71875 3.222656 -5.753906 3.191406 -5.789062 C 3.050781 -6.449219 3.015625 -7.140625 2.945312 -7.835938 C 2.738281 -11.164062 2.425781 -14.386719 2.945312 -17.683594 C 3.15625 -18.859375 3.363281 -20.109375 3.953125 -21.183594 C 4.125 -21.53125 4.332031 -21.667969 4.578125 -21.667969 C 5.234375 -21.667969 5.964844 -20.457031 5.996094 -19.796875 C 6.03125 -19.519531 6.308594 -19.3125 6.550781 -19.3125 C 6.691406 -19.3125 6.828125 -19.378906 6.898438 -19.554688 C 7.59375 -21.011719 7.175781 -22.710938 5.789062 -23.609375 C 5.410156 -23.851562 5.027344 -23.957031 4.644531 -23.957031 C 3.535156 -23.957031 2.460938 -23.019531 1.90625 -22.050781 C 0.902344 -20.316406 0.625 -18.097656 0.382812 -16.191406 C 0.0703125 -13.589844 -0.105469 -10.992188 0.0703125 -8.390625 C 0.207031 -6.550781 0.140625 -4.472656 1.386719 -2.945312 C 1.90625 -2.324219 2.496094 -2.046875 3.121094 -2.046875 C 3.882812 -2.046875 4.644531 -2.496094 5.164062 -3.328125 C 5.894531 -4.507812 6.136719 -6.066406 6.378906 -7.488281 C 6.449219 -6.933594 6.484375 -6.378906 6.519531 -5.859375 C 6.550781 -5.546875 6.691406 -5.164062 6.550781 -4.921875 C 6.34375 -4.578125 6.136719 -4.300781 5.964844 -3.917969 C 5.824219 -3.5 5.652344 -3.15625 5.546875 -2.773438 C 5.375 -2.183594 5.164062 -1.59375 5.027344 -1.039062 C 4.886719 -0.242188 4.820312 0.449219 4.921875 1.25 C 5.0625 2.21875 5.546875 3.882812 6.726562 3.882812 C 6.863281 3.882812 7.039062 3.847656 7.175781 3.8125 C 10.46875 2.878906 9.359375 -2.667969 9.015625 -5.0625 C 8.980469 -5.375 8.945312 -5.6875 8.910156 -5.996094 C 9.1875 -6.34375 9.464844 -6.691406 9.777344 -7.039062 C 10.191406 -7.453125 10.644531 -7.835938 11.058594 -8.21875 C 11.371094 -8.496094 11.753906 -8.875 11.890625 -9.292969 C 12.03125 -9.605469 11.824219 -9.914062 11.511719 -10.019531 C 11.476562 -10.019531 11.441406 -10.019531 11.40625 -10.019531 Z M 6.691406 2.148438 C 5.652344 1.90625 5.996094 0.347656 6.171875 -0.347656 C 6.378906 -1.109375 6.691406 -1.90625 7.003906 -2.667969 C 7.140625 -1.699219 7.246094 -0.761719 7.28125 0.207031 C 7.316406 0.554688 7.386719 2.148438 6.796875 2.148438 C 6.761719 2.148438 6.726562 2.148438 6.691406 2.148438 Z M 6.691406 2.148438 "/></g></g></g><g fill="#000000" fill-opacity="1"><g transform="translate(223.380273, 266.330016)"><g><path d="M 8.425781 -6.484375 C 8.460938 -6.519531 8.460938 -6.550781 8.460938 -6.585938 C 8.667969 -7.109375 8.875 -7.628906 9.117188 -8.148438 C 9.292969 -8.527344 9.5 -8.910156 9.5 -9.328125 C 9.535156 -9.707031 9.328125 -9.984375 8.910156 -9.984375 C 8.703125 -9.984375 8.527344 -9.914062 8.355469 -9.777344 C 8.007812 -9.5 7.800781 -8.839844 7.628906 -8.460938 C 7.386719 -7.941406 7.140625 -7.417969 6.828125 -6.933594 C 6.691406 -6.65625 6.378906 -6.34375 6.066406 -6.34375 C 5.996094 -6.34375 5.929688 -6.34375 5.859375 -6.378906 C 5.511719 -6.550781 5.652344 -7.175781 5.652344 -7.523438 C 5.859375 -10.367188 6.449219 -13.175781 6.828125 -16.019531 C 6.96875 -17.230469 7.074219 -19.242188 5.824219 -19.691406 C 5.6875 -19.761719 5.546875 -19.761719 5.410156 -19.761719 C 3.675781 -19.761719 2.390625 -15.253906 1.976562 -13.589844 C 1.976562 -15.011719 2.183594 -16.46875 2.148438 -17.890625 C 2.113281 -18.410156 1.734375 -18.792969 1.316406 -18.792969 C 1.109375 -18.792969 0.902344 -18.652344 0.761719 -18.339844 C 0.3125 -17.160156 0.140625 -15.878906 0.0703125 -14.597656 C 0 -13.382812 0 -12.03125 0 -10.78125 C 0 -9.257812 0.105469 -7.765625 0.171875 -6.242188 C 0.207031 -5.476562 0.277344 -4.714844 0.277344 -3.988281 C 0.242188 -3.292969 0.417969 -2.703125 0.519531 -2.011719 C 0.625 -1.457031 0.625 0.589844 1.527344 0.589844 C 2.046875 0.589844 2.425781 0.0703125 2.601562 -0.347656 C 3.050781 -1.386719 2.636719 -2.808594 2.53125 -3.882812 C 2.460938 -4.609375 2.460938 -5.339844 2.460938 -6.066406 C 2.460938 -8.945312 2.566406 -11.023438 3.328125 -13.800781 C 3.398438 -14.042969 4.054688 -16.78125 4.578125 -16.78125 C 4.644531 -16.78125 4.679688 -16.746094 4.714844 -16.710938 C 4.921875 -16.539062 4.855469 -16.226562 4.820312 -15.984375 C 4.785156 -15.566406 4.714844 -15.152344 4.679688 -14.769531 C 4.542969 -14.007812 4.4375 -13.277344 4.300781 -12.515625 C 3.917969 -11.199219 3.777344 -9.050781 3.710938 -7.695312 C 3.675781 -6.796875 3.640625 -5.929688 3.8125 -5.0625 C 4.023438 -4.230469 4.195312 -3.433594 5.234375 -3.433594 C 6.933594 -3.433594 7.871094 -5.097656 8.425781 -6.484375 Z M 8.425781 -6.484375 "/></g></g></g></svg>